<?xml version="1.0" encoding="utf-8"?>
<!-- Generator: Adobe Illustrator 19.0.0, SVG Export Plug-In . SVG Version: 6.00 Build 0)  -->
<svg version="1.1" id="Layer_1" xmlns="http://www.w3.org/2000/svg" xmlns:xlink="http://www.w3.org/1999/xlink" x="0px" y="0px"
	 viewBox="-113 -54.4 283.5 193.4" style="enable-background:new -113 -54.4 283.5 193.4;" xml:space="preserve">
<style type="text/css">
	.st0{fill:#FFFFFF;}
</style>
<path class="st0" d="M43-0.6c-1.6,0.9-2.8,2.4-3.2,4.2c-0.4,1.5-0.3,3,0.3,4.4l-7.7,4.4c-0.4-0.6-0.8-1.2-1.3-1.7
	c0,0-0.1-0.1-0.1-0.1c-0.1-0.1-0.3-0.3-0.4-0.4c-0.1-0.1-0.2-0.2-0.3-0.3C30.2,10,30.1,9.9,30,9.8c-0.2-0.1-0.3-0.3-0.5-0.4
	c0,0,0,0-0.1,0c-1.3-1.1-2.7-2-4.2-2.6c0,0,0,0,0,0c-0.1,0-0.2-0.1-0.3-0.1c-0.1,0-0.1-0.1-0.2-0.1c-0.1,0-0.1,0-0.2-0.1
	c-0.1,0-0.2-0.1-0.3-0.1c-0.1,0-0.2-0.1-0.3-0.1c0,0-0.1,0-0.1,0c-0.1,0-0.2-0.1-0.3-0.1C23.5,6,23.4,6,23.2,6c0,0,0,0,0,0
	c0,0,0,0,0,0c-0.1,0-0.3-0.1-0.4-0.1c-0.1,0-0.2-0.1-0.3-0.1c0,0-0.1,0-0.1,0c-0.1,0-0.3,0-0.4-0.1c-0.1,0-0.2,0-0.3,0
	c-0.1,0-0.1,0-0.2,0c-0.1,0-0.2,0-0.3,0c-0.2,0-0.4-0.1-0.6-0.1c0,0,0,0-0.1,0c-2.1-0.2-4.2,0-6.2,0.6c0,0,0,0-0.1,0
	c-0.2,0.1-0.4,0.1-0.6,0.2c0,0-0.1,0-0.1,0.1c-0.2,0.1-0.4,0.1-0.6,0.2c-0.1,0-0.1,0.1-0.2,0.1c-0.2,0.1-0.3,0.1-0.5,0.2
	c-0.1,0-0.1,0.1-0.2,0.1c-0.2,0.1-0.3,0.2-0.5,0.3c-0.1,0-0.1,0.1-0.2,0.1c0,0,0,0-0.1,0c-0.1,0-0.2,0.1-0.2,0.1
	c-0.1,0-0.2,0.1-0.2,0.2c0,0,0,0-0.1,0c0,0-0.1,0.1-0.1,0.1c-0.2,0.1-0.3,0.2-0.5,0.3c-0.1,0-0.1,0.1-0.2,0.1
	C10,8.4,9.8,8.5,9.7,8.6c-0.1,0-0.1,0.1-0.2,0.1C9.4,8.8,9.2,9,9.1,9.1c0,0-0.1,0.1-0.1,0.1C8.8,9.3,8.6,9.5,8.4,9.6c0,0,0,0,0,0
	c-0.9,0.9-1.8,1.8-2.5,2.9l-7.7-4.4c1.1-2.4,1.4-5.1,0.7-7.7c-0.8-2.9-2.6-5.3-5.2-6.8c-5.3-3.1-12.2-1.2-15.3,4.1
	c-3.1,5.3-1.2,12.2,4.1,15.3c1.7,1,3.6,1.5,5.6,1.5c1,0,2-0.1,2.9-0.4c2.6-0.7,4.8-2.3,6.3-4.5L5,14.2c-0.1,0.2-0.2,0.4-0.3,0.6
	c0,0,0,0,0,0c0,0.1-0.1,0.2-0.1,0.3c0,0,0,0,0,0.1c0,0.1-0.1,0.1-0.1,0.2c0,0.1-0.1,0.2-0.1,0.2c0,0.1,0,0.1-0.1,0.2
	c0,0.1-0.1,0.2-0.1,0.3c0,0.1-0.1,0.2-0.1,0.3c0,0,0,0.1,0,0.1c0,0.1-0.1,0.2-0.1,0.3c0,0.1-0.1,0.2-0.1,0.4c0,0,0,0,0,0
	c0,0,0,0,0,0c0,0.1-0.1,0.2-0.1,0.4c0,0.1-0.1,0.2-0.1,0.3c0,0,0,0.1,0,0.1c0,0.1,0,0.2-0.1,0.4c0,0.1,0,0.2-0.1,0.3
	c0,0.1,0,0.1,0,0.2c0,0.1,0,0.2,0,0.2c0,0.1,0,0.2,0,0.3c0,0,0,0,0,0c0,0.1,0,0.2,0,0.3c0,0,0,0,0,0c-0.2,2.1,0,4.2,0.6,6.3
	c0,0,0,0,0,0c0.1,0.2,0.1,0.4,0.2,0.7c0,0,0,0.1,0,0.1c0.1,0.2,0.1,0.4,0.2,0.6c0,0.1,0,0.1,0.1,0.2c0.1,0.2,0.2,0.4,0.2,0.5
	c0,0.1,0.1,0.1,0.1,0.2c0.1,0.2,0.2,0.3,0.3,0.5c0,0,0.1,0.1,0.1,0.1c0,0,0,0,0,0.1c0,0.1,0.1,0.2,0.1,0.2c0,0.1,0.1,0.1,0.1,0.2
	c0,0,0,0.1,0.1,0.1c0.1,0.1,0.2,0.3,0.3,0.4C6,29.9,6,30,6.1,30.1c0.2,0.2,0.3,0.5,0.5,0.7c0.1,0.1,0.1,0.2,0.2,0.2
	c0.1,0.2,0.3,0.4,0.4,0.5c0.1,0.1,0.1,0.2,0.2,0.2C7.6,32,7.8,32.2,8,32.4c0,0,0,0,0.1,0.1c0.2,0.2,0.5,0.4,0.7,0.6
	c0.1,0,0.1,0.1,0.2,0.1c0.2,0.2,0.4,0.3,0.6,0.5c0.1,0,0.1,0.1,0.2,0.1c0.2,0.2,0.5,0.4,0.8,0.5c0,0,0,0,0,0
	c0.1,0.1,0.3,0.2,0.4,0.3c0,0,0,0,0.1,0c0.1,0.1,0.2,0.1,0.3,0.2c0.1,0,0.1,0.1,0.2,0.1c0.1,0.1,0.3,0.1,0.4,0.2
	c0.1,0.1,0.3,0.1,0.4,0.2c0.2,0.1,0.5,0.2,0.7,0.3c0.1,0.1,0.3,0.1,0.4,0.2c0.1,0,0.3,0.1,0.4,0.1c0.2,0.1,0.3,0.1,0.5,0.2
	c0.1,0,0.2,0.1,0.3,0.1c0.7,0.2,1.4,0.4,2.1,0.5c0,0,0,0,0,0c0.3,0,0.5,0.1,0.8,0.1c0,0,0,0,0,0c0.2,0,0.5,0,0.7,0.1v8.9
	C13.6,46.3,10,50.2,10,55c0,5.1,4.1,9.2,9.2,9.2s9.2-4.1,9.2-9.2c0-4.8-3.6-8.7-8.3-9.1V37c0.2,0,0.3,0,0.5,0c0.1,0,0.3,0,0.4,0
	c0.1,0,0.3,0,0.4-0.1c0.2,0,0.4-0.1,0.7-0.1c0.1,0,0.1,0,0.2,0c0,0,0,0,0,0c0.3-0.1,0.6-0.1,0.9-0.2c0,0,0.1,0,0.1,0c0,0,0,0,0,0
	c0.1,0,0.1,0,0.2-0.1c0.2,0,0.3-0.1,0.5-0.2c0,0,0.1,0,0.1,0c0.1,0,0.2-0.1,0.3-0.1c0.1,0,0.2-0.1,0.3-0.1c0.1,0,0.3-0.1,0.4-0.1
	c0.1,0,0.1-0.1,0.2-0.1c0,0,0,0,0.1,0c2.1-0.9,3.9-2.2,5.4-3.8c0,0,0,0,0,0c0.2-0.2,0.3-0.3,0.5-0.5c0,0,0.1-0.1,0.1-0.1
	c0.1-0.2,0.3-0.3,0.4-0.5c0,0,0.1-0.1,0.1-0.2c0.1-0.2,0.2-0.3,0.3-0.5c0-0.1,0.1-0.1,0.1-0.2c0.1-0.2,0.2-0.3,0.3-0.5
	c0,0,0.1-0.1,0.1-0.1c0,0,0,0,0-0.1c0.1-0.1,0.1-0.2,0.2-0.3c0-0.1,0.1-0.2,0.1-0.2c0,0,0,0,0,0c0-0.1,0.1-0.1,0.1-0.2
	c0.1-0.2,0.2-0.3,0.3-0.5c0-0.1,0.1-0.1,0.1-0.2c0.1-0.2,0.2-0.3,0.2-0.5c0-0.1,0.1-0.1,0.1-0.2c0.1-0.2,0.1-0.4,0.2-0.6
	c0,0,0-0.1,0.1-0.1c0.1-0.2,0.1-0.4,0.2-0.6c0,0,0,0,0-0.1c0.6-2,0.8-4.1,0.6-6.2c0,0,0-0.1,0-0.1c0-0.1,0-0.2,0-0.3c0,0,0,0,0,0
	c0-0.1,0-0.2,0-0.2c0-0.1,0-0.2,0-0.3c0-0.1,0-0.1,0-0.2c0-0.1,0-0.2,0-0.3c0-0.1,0-0.3-0.1-0.4c0,0,0-0.1,0-0.1
	c0-0.1,0-0.2-0.1-0.3c0-0.1-0.1-0.3-0.1-0.4c0,0,0,0,0,0c0,0,0,0,0,0c0-0.1-0.1-0.2-0.1-0.3c0-0.1-0.1-0.2-0.1-0.4c0,0,0-0.1,0-0.1
	c0-0.1-0.1-0.2-0.1-0.3c0-0.1-0.1-0.2-0.1-0.3c0-0.1,0-0.1-0.1-0.2c0-0.1-0.1-0.1-0.1-0.2c0,0,0-0.1-0.1-0.1c0,0,0-0.1-0.1-0.1
	c0-0.1-0.1-0.2-0.1-0.3c0,0,0,0,0,0c-0.1-0.2-0.2-0.4-0.3-0.6l7.7-4.4c0.9,1.2,2.2,2.1,3.7,2.5c0.6,0.2,1.2,0.2,1.8,0.2
	c1.2,0,2.4-0.3,3.5-0.9c1.6-0.9,2.8-2.4,3.2-4.2c0.5-1.8,0.2-3.7-0.7-5.3C50.5-1.3,46.3-2.5,43-0.6z M-4.8,7.5
	c-1.1,1.9-2.8,3.2-4.9,3.8c-2.1,0.6-4.3,0.3-6.2-0.8c-3.9-2.2-5.2-7.2-3-11.1c1.5-2.6,4.3-4.1,7.1-4.1c1.4,0,2.8,0.3,4,1.1
	C-5.9-2.6-4.6-0.8-4,1.3C-3.4,3.4-3.7,5.6-4.8,7.5z M25.3,55c0,3.4-2.8,6.2-6.2,6.2c-3.4,0-6.2-2.8-6.2-6.2s2.8-6.2,6.2-6.2
	C22.5,48.8,25.3,51.6,25.3,55z M31.9,21.7c0,0.2,0,0.3,0,0.5c0,0.3-0.1,0.6-0.1,0.8c0,0.1,0,0.2-0.1,0.4c-0.1,0.3-0.1,0.6-0.2,0.9
	c0,0.1-0.1,0.2-0.1,0.3c-0.1,0.3-0.2,0.6-0.3,0.8c0,0.1-0.1,0.2-0.1,0.3c0,0,0,0,0,0c-0.1,0.2-0.2,0.5-0.3,0.7
	c-0.1,0.1-0.1,0.2-0.2,0.3c0,0.1-0.1,0.1-0.1,0.2c-0.1,0.2-0.2,0.3-0.3,0.5c-0.1,0.2-0.2,0.3-0.3,0.5c0,0.1-0.1,0.1-0.1,0.2
	c-0.1,0.1-0.2,0.2-0.2,0.3c-0.1,0.2-0.3,0.4-0.5,0.6c0,0,0,0,0,0c-0.1,0.1-0.2,0.2-0.2,0.3c-0.2,0.2-0.4,0.4-0.6,0.6
	c-0.1,0.1-0.2,0.2-0.2,0.2c-0.2,0.2-0.4,0.4-0.7,0.6c-0.1,0.1-0.2,0.2-0.3,0.2c-0.2,0.2-0.4,0.3-0.7,0.5c-0.1,0.1-0.3,0.2-0.4,0.3
	c-0.2,0.1-0.4,0.2-0.6,0.4c0,0-0.1,0-0.1,0c-0.2,0.1-0.3,0.2-0.5,0.3c-0.1,0.1-0.3,0.1-0.4,0.2c-0.1,0-0.2,0.1-0.3,0.1
	c-0.1,0.1-0.3,0.1-0.4,0.2c-0.1,0-0.2,0.1-0.3,0.1c-0.2,0.1-0.3,0.1-0.5,0.2c-0.1,0-0.2,0.1-0.3,0.1c-0.1,0-0.2,0.1-0.4,0.1
	c-0.2,0-0.4,0.1-0.5,0.1c-0.1,0-0.2,0-0.3,0.1c-0.2,0-0.3,0-0.5,0.1c-0.1,0-0.2,0-0.4,0c-0.2,0-0.3,0-0.5,0c-0.2,0-0.4,0-0.6,0
	c0,0-0.1,0-0.1,0c-0.2,0-0.4,0-0.7,0c-0.2,0-0.4,0-0.5,0c-0.3,0-0.5-0.1-0.8-0.1c-0.1,0-0.3,0-0.4-0.1c-0.3-0.1-0.6-0.1-0.8-0.2
	c-0.1,0-0.2-0.1-0.3-0.1c-0.3-0.1-0.5-0.2-0.8-0.3c-0.1,0-0.2-0.1-0.4-0.1c0,0,0,0,0,0c-0.2-0.1-0.5-0.2-0.7-0.3
	c-0.1-0.1-0.3-0.1-0.4-0.2c-0.1,0-0.1-0.1-0.2-0.1c-0.2-0.1-0.3-0.2-0.5-0.3c-0.2-0.1-0.3-0.2-0.5-0.3c0,0-0.1-0.1-0.1-0.1
	c-0.1-0.1-0.2-0.1-0.3-0.2c-0.2-0.2-0.4-0.3-0.6-0.5c0,0,0,0,0,0c-0.1-0.1-0.2-0.2-0.3-0.2c-0.2-0.2-0.4-0.4-0.7-0.6
	c-0.1-0.1-0.2-0.2-0.2-0.2c-0.2-0.2-0.4-0.4-0.6-0.7c-0.1-0.1-0.2-0.2-0.2-0.3c-0.2-0.2-0.3-0.4-0.5-0.7c-0.1-0.1-0.2-0.3-0.3-0.4
	c-0.1-0.2-0.2-0.4-0.4-0.6c0,0,0-0.1,0-0.1c-0.1-0.1-0.1-0.3-0.2-0.4c-0.1-0.2-0.2-0.3-0.2-0.5c-0.1-0.1-0.1-0.2-0.2-0.4
	c0-0.1-0.1-0.2-0.1-0.3c-0.1-0.1-0.1-0.3-0.2-0.4C7,25.2,7,25,6.9,24.8c0,0,0,0,0-0.1c0-0.2-0.1-0.3-0.1-0.5
	c-0.1-0.2-0.1-0.4-0.1-0.6c0-0.2-0.1-0.5-0.1-0.7c0-0.2,0-0.3-0.1-0.5c0,0,0,0,0,0c0-0.3,0-0.6,0-0.8c0-0.1,0-0.2,0-0.2
	c0-0.1,0-0.2,0-0.3c0-0.3,0-0.6,0-0.9c0,0,0,0,0,0c0-0.2,0-0.3,0.1-0.5c0-0.2,0.1-0.5,0.1-0.7c0-0.2,0.1-0.4,0.1-0.6
	c0-0.2,0.1-0.4,0.1-0.5c0,0,0,0,0-0.1C7,17.5,7,17.3,7.1,17.1c0.1-0.2,0.1-0.3,0.2-0.4c0-0.1,0.1-0.2,0.1-0.3
	c0.1-0.1,0.1-0.2,0.2-0.4c0.1-0.2,0.1-0.3,0.2-0.5c0.1-0.1,0.1-0.3,0.2-0.4C8,15.1,8,15,8,15c0.2-0.3,0.3-0.6,0.5-0.8
	c0,0,0.1-0.1,0.1-0.1c0.2-0.3,0.4-0.6,0.7-0.9c0,0,0,0,0.1-0.1c0.2-0.3,0.5-0.6,0.8-0.8c0,0,0.1-0.1,0.1-0.1
	c0.3-0.2,0.5-0.5,0.8-0.7c0.1-0.1,0.1-0.1,0.2-0.2c0.2-0.2,0.5-0.4,0.7-0.5c0.1-0.1,0.3-0.2,0.4-0.3c0.2-0.1,0.4-0.3,0.7-0.4
	c0.1-0.1,0.2-0.1,0.3-0.1c0.2-0.1,0.4-0.2,0.7-0.3c0.1-0.1,0.3-0.1,0.4-0.2c0.3-0.1,0.6-0.2,0.9-0.3C15.3,9.1,15.5,9,15.7,9
	c0.2,0,0.3-0.1,0.5-0.1c0.2,0,0.4-0.1,0.6-0.1c0.3,0,0.5-0.1,0.8-0.1c0.2,0,0.3,0,0.5,0c0.3,0,0.6,0,0.9,0c0.1,0,0.1,0,0.2,0
	c0,0,0,0,0.1,0c0.4,0,0.7,0,1,0.1c0.1,0,0.2,0,0.3,0c0.4,0,0.7,0.1,1.1,0.2c0,0,0,0,0.1,0c0.1,0,0.1,0,0.2,0
	c0.3,0.1,0.5,0.1,0.8,0.2c0.2,0.1,0.4,0.1,0.6,0.2c0.2,0.1,0.4,0.1,0.6,0.2c0.2,0.1,0.3,0.1,0.5,0.2c0.2,0.1,0.5,0.2,0.7,0.4
	c0.1,0.1,0.2,0.1,0.3,0.2c0.2,0.1,0.4,0.2,0.6,0.4c0.1,0.1,0.3,0.2,0.4,0.2c0.3,0.2,0.5,0.4,0.7,0.6c0.1,0.1,0.1,0.1,0.2,0.2
	c0.3,0.2,0.5,0.5,0.8,0.7c0,0,0,0,0,0c0,0,0,0,0.1,0.1c0.2,0.3,0.5,0.5,0.7,0.8c0.1,0.1,0.1,0.1,0.2,0.2c0.2,0.2,0.4,0.5,0.5,0.7
	c0.1,0.1,0.2,0.3,0.2,0.4c0.1,0.2,0.3,0.4,0.4,0.6c0,0,0,0.1,0,0.1c0.1,0.2,0.2,0.3,0.3,0.5c0.1,0.1,0.1,0.3,0.2,0.4
	c0,0.1,0.1,0.2,0.1,0.3c0.1,0.1,0.1,0.3,0.2,0.4c0,0.1,0.1,0.2,0.1,0.3c0.1,0.2,0.1,0.3,0.2,0.5c0,0.1,0.1,0.2,0.1,0.4
	c0,0.1,0.1,0.2,0.1,0.3c0,0.2,0.1,0.4,0.1,0.5c0,0.1,0,0.3,0.1,0.4c0,0.1,0,0.3,0.1,0.4c0,0.1,0,0.2,0,0.4c0,0.2,0,0.3,0,0.5
	c0,0.2,0,0.4,0,0.5c0,0,0,0.1,0,0.1C31.9,21.3,31.9,21.5,31.9,21.7z M50.2,6.5c-0.3,1-0.9,1.9-1.8,2.4h0c-0.9,0.5-2,0.7-3,0.4
	c-1-0.3-1.9-0.9-2.4-1.8c-0.5-0.9-0.7-2-0.4-3c0.3-1,0.9-1.9,1.8-2.4c0.6-0.4,1.3-0.5,2-0.5c1.4,0,2.7,0.7,3.4,2
	C50.3,4.4,50.5,5.5,50.2,6.5z M146.9-54.4H-110c-1.7,0-3,1.4-3,3V99.4c0,1.7,1.4,3,3,3H-0.9v14.7h-24.1c-0.6,0-1.1,0.4-1.4,0.9
	l-2.2,4.9c-0.2,0.5-0.2,1,0.1,1.4c0.3,0.4,0.8,0.7,1.3,0.7H64c0.5,0,1-0.3,1.3-0.7c0.3-0.4,0.3-1,0.1-1.4l-2.2-4.9
	c-0.2-0.5-0.8-0.9-1.4-0.9H37.8v-14.7h109.1c1.7,0,3-1.4,3-3V-51.3C149.9-53,148.6-54.4,146.9-54.4z M60.9,120.2l0.8,1.8h-86.5
	l0.8-1.8H60.9z M34.8,106v11.1H2.2V106H34.8z M2.2,104.2v-1.8h32.6v1.8H2.2z M143.9,96.4h-4.4v-4.4c0-0.5-0.4-0.9-0.9-0.9
	c-0.5,0-0.9,0.4-0.9,0.9v4.4h-244.6V-48.3h250.8V96.4z M-95.8,87.1h228.6c0.8,0,1.5-0.7,1.5-1.5V-37.6c0-0.8-0.7-1.5-1.5-1.5H-95.8
	c-0.8,0-1.5,0.7-1.5,1.5V85.6C-97.3,86.5-96.7,87.1-95.8,87.1z M-94.3-36h225.5v1.7H-94.3V-36z M-94.3-32.5h225.5V84.1H-94.3V-32.5z
	 M30.3,90.9H6.6c-0.5,0-0.9,0.4-0.9,0.9c0,0.5,0.4,0.9,0.9,0.9h23.7c0.5,0,0.9-0.4,0.9-0.9C31.2,91.3,30.8,90.9,30.3,90.9z M18.5-42
	c0.9,0,1.5-0.7,1.5-1.5c0-0.9-0.7-1.5-1.5-1.5c-0.9,0-1.5,0.7-1.5,1.5C16.9-42.7,17.6-42,18.5-42z M23.2-42.9c0.4,0,0.7-0.3,0.7-0.7
	c0-0.4-0.3-0.7-0.7-0.7c-0.4,0-0.7,0.3-0.7,0.7C22.4-43.2,22.8-42.9,23.2-42.9z"/>
</svg>
