<?xml version="1.0" encoding="utf-8"?>
<!-- Generator: Adobe Illustrator 19.0.0, SVG Export Plug-In . SVG Version: 6.00 Build 0)  -->
<svg version="1.1" id="Layer_1" xmlns="http://www.w3.org/2000/svg" xmlns:xlink="http://www.w3.org/1999/xlink" x="0px" y="0px"
	 viewBox="0 0 283.5 193.4" style="enable-background:new 0 0 283.5 193.4;" xml:space="preserve">
<style type="text/css">
	.st0{fill:#FFFFFF;}
</style>
<path id="XMLID_2_" class="st0" d="M141.7,61.5c-12.7,0-23.1,10.3-23.1,23.1s10.3,23.1,23.1,23.1c12.7,0,23.1-10.3,23.1-23.1
	S154.4,61.5,141.7,61.5z M134.2,66.2c-2,2.5-3.6,5.9-4.5,10h-6C125.9,71.7,129.6,68.1,134.2,66.2z M121.9,84.5
	c0-2.2,0.4-4.4,1.1-6.4h6.4c-0.3,2-0.5,4.1-0.5,6.4c0,2.2,0.2,4.3,0.5,6.4H123C122.3,88.9,121.9,86.7,121.9,84.5z M123.8,92.8h6
	c0.9,4.1,2.5,7.5,4.5,10C129.6,100.9,125.9,97.3,123.8,92.8z M140.8,104.3c-0.8,0-1.5-0.1-2.3-0.2c-3-1.8-5.4-5.9-6.7-11.2h9V104.3z
	 M140.8,90.9h-9.4c-0.3-2-0.5-4.1-0.5-6.4c0-2.2,0.2-4.4,0.5-6.4h9.4V90.9z M140.8,76.2h-9c1.3-5.3,3.7-9.5,6.7-11.2
	c0.7-0.1,1.5-0.2,2.3-0.2V76.2z M142.7,64.8c0.8,0,1.5,0.1,2.3,0.2c3,1.8,5.4,5.9,6.7,11.2h-9V64.8z M142.7,78.2h9.4
	c0.3,2,0.5,4.1,0.5,6.4c0,2.2-0.2,4.4-0.5,6.4h-9.4V78.2z M145,104c-0.7,0.1-1.5,0.2-2.3,0.2V92.8h9C150.4,98.2,148,102.3,145,104z
	 M149.2,102.8c2-2.5,3.6-5.9,4.5-10h6C157.6,97.3,153.8,100.9,149.2,102.8z M161.5,84.5c0,2.2-0.4,4.4-1.1,6.4h-6.4
	c0.3-2,0.5-4.1,0.5-6.4c0-2.2-0.2-4.3-0.5-6.4h6.4C161.1,80.2,161.5,82.3,161.5,84.5z M153.7,76.2c-0.9-4.1-2.5-7.5-4.5-10
	c4.6,1.9,8.4,5.5,10.5,10H153.7z M280.2,0H3.3C1.5,0,0,1.5,0,3.3v162.5c0,1.8,1.5,3.3,3.3,3.3h117.6v15.9h-26c-0.6,0-1.2,0.4-1.5,1
	l-2.3,5.3c-0.2,0.5-0.2,1.1,0.1,1.6c0.3,0.5,0.8,0.7,1.4,0.7h98.2c0.6,0,1.1-0.3,1.4-0.7c0.3-0.5,0.3-1,0.1-1.6l-2.3-5.3
	c-0.3-0.6-0.8-1-1.5-1h-26V169h117.6c1.8,0,3.3-1.5,3.3-3.3V3.3C283.5,1.5,282,0,280.2,0z M187.5,188.2l0.9,2H95.1l0.9-2H187.5z
	 M159.3,172.9v12h-35.1v-12H159.3z M124.2,170.9V169h35.1v1.9H124.2z M276.9,162.5h-4.8v-4.8c0-0.5-0.4-1-1-1s-1,0.4-1,1v4.8H6.5
	V6.5h270.4V162.5z M18.5,152.6h246.4c0.9,0,1.6-0.7,1.6-1.6V18.1c0-0.9-0.7-1.6-1.6-1.6H18.5c-0.9,0-1.6,0.7-1.6,1.6v132.8
	C16.9,151.8,17.6,152.6,18.5,152.6z M20.2,19.7h243.2v1.9H20.2V19.7z M20.2,23.6h243.2v125.7H20.2V23.6z M154.5,156.6H129
	c-0.5,0-1,0.4-1,1s0.4,1,1,1h25.5c0.5,0,1-0.4,1-1S155,156.6,154.5,156.6z M141.7,13.3c0.9,0,1.7-0.7,1.7-1.7c0-0.9-0.7-1.7-1.7-1.7
	s-1.7,0.7-1.7,1.7C140.1,12.5,140.8,13.3,141.7,13.3z M146.8,12.4c0.4,0,0.8-0.4,0.8-0.8c0-0.4-0.4-0.8-0.8-0.8
	c-0.4,0-0.8,0.4-0.8,0.8C146,12,146.4,12.4,146.8,12.4z M183.4,101.9l-14-6.3c-0.6-0.3-1.4-0.1-1.9,0.4c-0.5,0.5-0.6,1.3-0.4,1.9
	l6.3,14c0.3,0.6,0.9,1,1.6,1c0.1,0,0.2,0,0.3,0c0.8-0.1,1.4-0.8,1.4-1.5l0.6-5.6l5.6-0.6c0.8-0.1,1.4-0.7,1.5-1.4
	C184.6,102.9,184.1,102.2,183.4,101.9z M176.3,103.8c-0.5,0-0.8,0.4-0.9,0.9l-0.6,5.5l-5.7-12.6l12.6,5.7L176.3,103.8z"/>
</svg>
