<?xml version="1.0" encoding="utf-8"?>
<!-- Generator: Adobe Illustrator 19.0.0, SVG Export Plug-In . SVG Version: 6.00 Build 0)  -->
<svg version="1.1" id="Layer_1" xmlns="http://www.w3.org/2000/svg" xmlns:xlink="http://www.w3.org/1999/xlink" x="0px" y="0px"
	 viewBox="0 0 283.5 193.4" style="enable-background:new 0 0 283.5 193.4;" xml:space="preserve">
<style type="text/css">
	.st0{fill:#FFFFFF;}
	.st1{fill:none;stroke:#FFFFFF;stroke-width:2;stroke-linejoin:round;stroke-miterlimit:10;}
</style>
<path id="XMLID_15_" class="st0" d="M280.2,0H3.3C1.5,0,0,1.5,0,3.3v162.5c0,1.8,1.5,3.3,3.3,3.3h117.6v15.9h-26
	c-0.6,0-1.2,0.4-1.5,1l-2.3,5.3c-0.2,0.5-0.2,1.1,0.1,1.6c0.3,0.5,0.8,0.7,1.4,0.7h98.2c0.6,0,1.1-0.3,1.4-0.7
	c0.3-0.5,0.3-1,0.1-1.6l-2.3-5.3c-0.3-0.6-0.8-1-1.5-1h-26V169h117.6c1.8,0,3.3-1.5,3.3-3.3V3.3C283.5,1.5,282,0,280.2,0z
	 M187.5,188.2l0.9,2H95.1l0.9-2H187.5z M159.3,172.9v12h-35.1v-12H159.3z M124.2,170.9V169h35.1v1.9H124.2z M276.9,162.5h-4.8v-4.8
	c0-0.5-0.4-1-1-1s-1,0.4-1,1v4.8H6.5V6.5h270.4V162.5z M18.5,152.6h246.4c0.9,0,1.6-0.7,1.6-1.6V18.1c0-0.9-0.7-1.6-1.6-1.6H18.5
	c-0.9,0-1.6,0.7-1.6,1.6v132.8C16.9,151.8,17.6,152.6,18.5,152.6z M20.2,19.7h243.2v1.9H20.2V19.7z M20.2,23.6h243.2v125.7H20.2
	V23.6z M154.5,156.6H129c-0.5,0-1,0.4-1,1s0.4,1,1,1h25.5c0.5,0,1-0.4,1-1S155,156.6,154.5,156.6z M141.7,13.3
	c0.9,0,1.7-0.7,1.7-1.7c0-0.9-0.7-1.7-1.7-1.7c-0.9,0-1.7,0.7-1.7,1.7C140.1,12.5,140.8,13.3,141.7,13.3z M146.8,12.4
	c0.4,0,0.8-0.4,0.8-0.8c0-0.4-0.4-0.8-0.8-0.8c-0.4,0-0.8,0.4-0.8,0.8C146,12,146.4,12.4,146.8,12.4z"/>
<polyline id="XMLID_14_" class="st1" points="20.2,126.4 70,126.4 70,107.3 132.8,107.3 132.8,91.7 141.7,91.7 "/>
<polyline id="XMLID_13_" class="st1" points="20.2,48.6 51.2,48.6 51.2,68 93.2,68 93.2,39.1 141.7,39.1 141.7,91.7 "/>
<polyline id="XMLID_12_" class="st1" points="264.9,66.6 245.8,66.6 245.8,45.6 203.5,45.6 203.5,69.6 171.1,69.6 171.1,79 
	153.9,79 153.9,91.7 141.7,91.7 "/>
<polyline id="XMLID_11_" class="st1" points="264.9,134 212.6,134 212.6,111.9 169.2,111.9 169.2,119.7 155.5,119.7 155.5,99.5 
	141.7,99.5 141.7,91.7 "/>
<circle id="XMLID_10_" class="st0" cx="212.6" cy="111.9" r="3.1"/>
<circle id="XMLID_9_" class="st0" cx="171.1" cy="69.6" r="3.1"/>
<circle id="XMLID_8_" class="st0" cx="93.2" cy="68" r="3.1"/>
<circle id="XMLID_7_" class="st0" cx="70" cy="126.4" r="3.1"/>
<circle id="XMLID_6_" class="st0" cx="224.7" cy="45.6" r="3.1"/>
<circle id="XMLID_5_" class="st0" cx="51.2" cy="56.4" r="3.1"/>
<circle id="XMLID_4_" class="st0" cx="251.8" cy="134" r="3.1"/>
<rect id="XMLID_3_" x="137.9" y="87.8" class="st0" width="7.7" height="7.7"/>
</svg>
